<mxfile host="app.diagrams.net" modified="2022-03-08T11:27:54.928Z" agent="5.0 (Windows NT 10.0; WOW64) AppleWebKit/537.36 (KHTML, like Gecko) Chrome/98.0.4758.102 Safari/537.36" etag="rz_0kgY-IXi1ShfO1ar6" version="16.6.7" type="github">
  <diagram id="R2lEEEUBdFMjLlhIrx00" name="data requirements scenario">
    <mxGraphModel dx="563" dy="1823" grid="1" gridSize="10" guides="1" tooltips="1" connect="1" arrows="1" fold="1" page="1" pageScale="1" pageWidth="850" pageHeight="1100" math="0" shadow="0" extFonts="Permanent Marker^https://fonts.googleapis.com/css?family=Permanent+Marker">
      <root>
        <mxCell id="0" />
        <mxCell id="1" parent="0" />
        <mxCell id="E662rR4GyOuJ6JWde8dp-3" value="treatment" style="whiteSpace=wrap;html=1;align=center;" vertex="1" parent="1">
          <mxGeometry x="550" y="250" width="100" height="40" as="geometry" />
        </mxCell>
        <mxCell id="E662rR4GyOuJ6JWde8dp-4" value="Attribute" style="ellipse;whiteSpace=wrap;html=1;align=center;" vertex="1" parent="1">
          <mxGeometry x="550" y="250" width="100" height="40" as="geometry" />
        </mxCell>
        <mxCell id="E662rR4GyOuJ6JWde8dp-9" value="" style="edgeStyle=orthogonalEdgeStyle;rounded=0;orthogonalLoop=1;jettySize=auto;html=1;" edge="1" parent="1" source="E662rR4GyOuJ6JWde8dp-5">
          <mxGeometry relative="1" as="geometry">
            <mxPoint x="600" y="180" as="targetPoint" />
          </mxGeometry>
        </mxCell>
        <mxCell id="E662rR4GyOuJ6JWde8dp-5" value="treatment" style="whiteSpace=wrap;html=1;align=center;" vertex="1" parent="1">
          <mxGeometry x="550" y="250" width="100" height="40" as="geometry" />
        </mxCell>
        <mxCell id="E662rR4GyOuJ6JWde8dp-7" value="" style="edgeStyle=orthogonalEdgeStyle;rounded=0;orthogonalLoop=1;jettySize=auto;html=1;" edge="1" parent="1" source="E662rR4GyOuJ6JWde8dp-6" target="E662rR4GyOuJ6JWde8dp-5">
          <mxGeometry relative="1" as="geometry" />
        </mxCell>
        <mxCell id="E662rR4GyOuJ6JWde8dp-6" value="level" style="ellipse;whiteSpace=wrap;html=1;align=center;" vertex="1" parent="1">
          <mxGeometry x="680" y="250" width="80" height="40" as="geometry" />
        </mxCell>
        <mxCell id="E662rR4GyOuJ6JWde8dp-10" style="edgeStyle=orthogonalEdgeStyle;rounded=0;orthogonalLoop=1;jettySize=auto;html=1;exitX=0.5;exitY=1;exitDx=0;exitDy=0;" edge="1" parent="1">
          <mxGeometry relative="1" as="geometry">
            <mxPoint x="600" y="180" as="sourcePoint" />
            <mxPoint x="600" y="180" as="targetPoint" />
          </mxGeometry>
        </mxCell>
        <mxCell id="E662rR4GyOuJ6JWde8dp-13" value="" style="edgeStyle=orthogonalEdgeStyle;rounded=0;orthogonalLoop=1;jettySize=auto;html=1;" edge="1" parent="1" source="E662rR4GyOuJ6JWde8dp-11" target="E662rR4GyOuJ6JWde8dp-12">
          <mxGeometry relative="1" as="geometry" />
        </mxCell>
        <mxCell id="E662rR4GyOuJ6JWde8dp-11" value="effect" style="shape=rhombus;perimeter=rhombusPerimeter;whiteSpace=wrap;html=1;align=center;" vertex="1" parent="1">
          <mxGeometry x="540" y="120" width="120" height="60" as="geometry" />
        </mxCell>
        <mxCell id="E662rR4GyOuJ6JWde8dp-12" value="&#xa;&#xa;observed measured variables&#xa;&#xa;" style="rounded=1;whiteSpace=wrap;html=1;" vertex="1" parent="1">
          <mxGeometry x="540" y="-20" width="120" height="60" as="geometry" />
        </mxCell>
        <mxCell id="E662rR4GyOuJ6JWde8dp-17" value="" style="edgeStyle=orthogonalEdgeStyle;rounded=0;orthogonalLoop=1;jettySize=auto;html=1;" edge="1" parent="1" source="E662rR4GyOuJ6JWde8dp-14" target="E662rR4GyOuJ6JWde8dp-16">
          <mxGeometry relative="1" as="geometry" />
        </mxCell>
        <mxCell id="E662rR4GyOuJ6JWde8dp-20" value="" style="edgeStyle=orthogonalEdgeStyle;rounded=0;orthogonalLoop=1;jettySize=auto;html=1;" edge="1" parent="1" source="E662rR4GyOuJ6JWde8dp-14" target="E662rR4GyOuJ6JWde8dp-19">
          <mxGeometry relative="1" as="geometry" />
        </mxCell>
        <mxCell id="E662rR4GyOuJ6JWde8dp-14" value="&#xa;&#xa; experimental units&#xa;&#xa;" style="whiteSpace=wrap;html=1;align=center;" vertex="1" parent="1">
          <mxGeometry x="340" y="370" width="125" height="50" as="geometry" />
        </mxCell>
        <mxCell id="E662rR4GyOuJ6JWde8dp-16" value="&#xa;&#xa;the type of experiment&#xa;&#xa;" style="ellipse;whiteSpace=wrap;html=1;" vertex="1" parent="1">
          <mxGeometry x="342.5" y="230" width="120" height="60" as="geometry" />
        </mxCell>
        <mxCell id="E662rR4GyOuJ6JWde8dp-21" value="" style="edgeStyle=orthogonalEdgeStyle;rounded=0;orthogonalLoop=1;jettySize=auto;html=1;" edge="1" parent="1" source="E662rR4GyOuJ6JWde8dp-19" target="E662rR4GyOuJ6JWde8dp-5">
          <mxGeometry relative="1" as="geometry" />
        </mxCell>
        <mxCell id="E662rR4GyOuJ6JWde8dp-19" value="allocate" style="rhombus;whiteSpace=wrap;html=1;" vertex="1" parent="1">
          <mxGeometry x="560" y="352.5" width="80" height="85" as="geometry" />
        </mxCell>
      </root>
    </mxGraphModel>
  </diagram>
</mxfile>
